# xmcd CD database file
#
# Track frame offsets:
#	150
#	13546
#	28921
#	44003
#	54208
#	67673
#	82692
#	100444
#	110541
#	126093
#	143423
#	161235
#
# Disc length: 2292 seconds
#
# Revision: 0
# Processed by: cddbd v1.5.2PL0 Copyright (c) Steve Scherf et al.
# Submitted via: CdAid (MTCDDB.DLL V2003.12.21)
#
DISCID=9408f20c
DTITLE=Ryan Montbleau - I Was Just Leaving
DYEAR=2017
DGENRE=Folk-Rock
TTITLE0=I Was Just Leaving
TTITLE1=Bright Side
TTITLE2=Time and Again
TTITLE3=Warning Bell
TTITLE4=Moving Too Fast
TTITLE5=Running the Engine
TTITLE6=Hope vs. Pray
TTITLE7=This Wonderful Place
TTITLE8=Never Stopped Loving You
TTITLE9=Abigail
TTITLE10=Together At Least
TTITLE11=Cue the Majesty
EXTD=ID3G:  81 YEAR: 2017
EXTT0=
EXTT1=
EXTT2=
EXTT3=
EXTT4=
EXTT5=
EXTT6=
EXTT7=
EXTT8=
EXTT9=
EXTT10=
EXTT11=
PLAYORDER=
